<svg width="156" height="54" viewBox="0 0 256 54" fill="none" xmlns="http://www.w3.org/2000/svg">
<path d="M10.48 39.808L0.736 29.2L10.48 18.592H20.8L11.008 29.2L20.8 39.808H10.48ZM43.3495 46.336C40.1815 46.336 37.2695 45.6 34.6135 44.128C31.9895 42.656 29.8935 40.608 28.3255 37.984C26.7895 35.328 26.0215 32.352 26.0215 29.056C26.0215 25.76 26.7895 22.8 28.3255 20.176C29.8935 17.552 31.9895 15.504 34.6135 14.032C37.2695 12.56 40.1815 11.824 43.3495 11.824C46.5175 11.824 49.4135 12.56 52.0375 14.032C54.6935 15.504 56.7735 17.552 58.2775 20.176C59.8135 22.8 60.5815 25.76 60.5815 29.056C60.5815 32.352 59.8135 35.328 58.2775 37.984C56.7415 40.608 54.6615 42.656 52.0375 44.128C49.4135 45.6 46.5175 46.336 43.3495 46.336ZM43.3495 38.848C46.0375 38.848 48.1815 37.952 49.7815 36.16C51.4135 34.368 52.2295 32 52.2295 29.056C52.2295 26.08 51.4135 23.712 49.7815 21.952C48.1815 20.16 46.0375 19.264 43.3495 19.264C40.6295 19.264 38.4535 20.144 36.8215 21.904C35.2215 23.664 34.4215 26.048 34.4215 29.056C34.4215 32.032 35.2215 34.416 36.8215 36.208C38.4535 37.968 40.6295 38.848 43.3495 38.848ZM73.8839 39.28H88.3799V46H64.5719V39.76L78.9719 19.024H64.5719V12.304H88.3799V18.544L73.8839 39.28ZM101.806 12.304V32.464C101.806 34.48 102.302 36.032 103.294 37.12C104.286 38.208 105.742 38.752 107.662 38.752C109.582 38.752 111.054 38.208 112.078 37.12C113.102 36.032 113.614 34.48 113.614 32.464V12.304H121.822V32.416C121.822 35.424 121.182 37.968 119.902 40.048C118.622 42.128 116.894 43.696 114.718 44.752C112.574 45.808 110.174 46.336 107.518 46.336C104.862 46.336 102.478 45.824 100.366 44.8C98.2856 43.744 96.6376 42.176 95.4216 40.096C94.2056 37.984 93.5976 35.424 93.5976 32.416V12.304H101.806ZM138.385 12.448C142.097 12.448 145.281 13.12 147.937 14.464C150.593 15.808 152.625 17.744 154.033 20.272C155.441 22.8 156.145 25.808 156.145 29.296C156.145 32.752 155.441 35.744 154.033 38.272C152.625 40.768 150.593 42.688 147.937 44.032C145.281 45.344 142.097 46 138.385 46H128.449V12.448H138.385ZM138.385 43.216C143.057 43.216 146.609 42 149.041 39.568C151.505 37.104 152.737 33.68 152.737 29.296C152.737 24.88 151.505 21.44 149.041 18.976C146.609 16.48 143.057 15.232 138.385 15.232H131.809V43.216H138.385ZM165.7 15.184V27.712H178.42V30.496H165.7V43.216H179.86V46H162.34V12.4H179.86V15.184H165.7ZM213.073 12.448L200.353 46H196.513L183.793 12.448H187.441L198.433 42.352L209.521 12.448H213.073ZM233.049 0.879997L219.801 53.968H216.489L229.641 0.879997H233.049ZM239.213 17.104H243.485L255.533 28.24L243.485 39.376H239.213L251.309 28.24L239.213 17.104Z" fill="#1A1A1A"/>
</svg>
